# xmcd
#
# Track frame offsets:
#	150
#	12922
#	27902
#	49802
#	67847
#	82482
#	98142
#	114680
#	126795
#	142205
#	160152
#	174022
#	196722
#	214720
#	252840
#
# Disc length: 4440 seconds
#
# Revision: 0
# Processed by: cddbd v1.4PL0 Copyright (c) Steve Scherf et al.
# Submitted via: dBpowerAMP V4.0
#
DISCID=cb11560f
DTITLE=Sky High - 25 Years Of Madness
DYEAR=2003
DGENRE=Boogie Rock
TTITLE0=The House Is Rockin'
TTITLE1=Let's Go Crazy
TTITLE2=Bad Moon Rising (Bad Moon Blues)
TTITLE3=Can You Forgive Her?
TTITLE4=It's Alright, Baby's Comin' Back
TTITLE5=Tell The Truth
TTITLE6=Ain't No Mountain High Enough
TTITLE7=Give Me All Your Lovin'
TTITLE8=Freedom For The Stallion
TTITLE9=Kingsize Boogieman
TTITLE10=In My Chair
TTITLE11=I Am The Valrus (Eggman Revisited)
TTITLE12=The Wind Cries Mary
TTITLE13=Dust My Hidewalk
TTITLE14=DATA
EXTD=
EXTT0=
EXTT1=
EXTT2=
EXTT3=
EXTT4=
EXTT5=
EXTT6=
EXTT7=
EXTT8=
EXTT9=
EXTT10=
EXTT11=
EXTT12=
EXTT13=
EXTT14=
PLAYORDER=
